<?xml version="1.0" encoding="utf-8"?>
<!-- Generator: Adobe Illustrator 21.1.0, SVG Export Plug-In . SVG Version: 6.00 Build 0)  -->
<svg version="1.1" id="Calque_1" xmlns="http://www.w3.org/2000/svg" xmlns:xlink="http://www.w3.org/1999/xlink" x="0px" y="0px"
	 viewBox="0 0 94.9 123.4" style="enable-background:new 0 0 94.9 123.4;" xml:space="preserve">
<style type="text/css">
	.st0{display:none;}
	.st1{display:inline;fill:#8E1616;}
	.st2{fill:#FEFEFE;}
	.st3{fill:#DCE9F7;}
	.st4{fill:#AAB9C9;}
	.st5{fill:#F8807D;}
	.st6{fill:#596C7D;}
	.st7{fill:#0A0A0A;}
	.st8{fill:#40505F;}
	.st9{fill:#344352;}
	.st10{fill:#354453;}
	.st11{fill:#213140;}
	.st12{fill:#BB4A4E;}
	.st13{fill:#8F424A;}
	.st14{fill:#2A3846;}
	.st15{fill:#293948;}
</style>
<g id="Calque_2" class="st0">
	<rect x="0.3" y="-0.2" class="st1" width="94.9" height="123.4"/>
</g>
<g id="Calque_1_1_">
	<title>Alfred Botler</title>
	<path class="st2" d="M80.7,87.3c0-1,0.3-2.3-0.6-2.9c-1.3-0.8-2.1,0.6-3,1.3c-2.6,1.9-5.2,3.1-4.6,7.8c0.5,4-2.1,8.3-3.3,12.5
		c-0.5,1.8-1.4,2.1-3,1.2c-4.7-2.5-10.3-3.1-13.6-8.1c-1.8-2.7-4.9-2.4-6.7-0.2c-3.7,4.5-9.2,5.4-13.7,8.2c-1.9,1.2-2.6,0.2-2.8-1.4
		c-0.9-5.2-4.1-10-3.4-15.6c0.2-1.2-6.4-6.6-7.5-6.4c-1.8,0.4-1,2-1.1,3c-0.2,9.6,0.3,19.1,2.6,28.6c18.1,11.5,41.4,10.5,58.4-2.5
		c0-0.1,0-0.2,0.1-0.3C81.1,104.4,80.9,95.9,80.7,87.3z M49.3,117.6c-1.1-0.1-1.9-0.6-1.9-1.9c-0.1-0.9,0.5-1.7,1.4-1.9
		c0.2,0,0.3,0,0.5,0c0.8-0.1,1.6,0.6,1.6,1.4v0.1C51.1,116.4,50.4,117.4,49.3,117.6L49.3,117.6z"/>
	<path class="st2" d="M49.3,117.6c-1.1-0.1-1.9-0.6-1.9-1.9c-0.1-0.9,0.5-1.7,1.4-1.9c0.2,0,0.3,0,0.5,0c0.8-0.1,1.6,0.6,1.6,1.4
		v0.1C51.1,116.4,50.4,117.4,49.3,117.6L49.3,117.6z"/>
	<path class="st2" d="M94.8,90.3c-3.4,8.8-9.2,16.6-16.7,22.3c0-0.1,0-0.2,0.1-0.3C81,104,80.8,95.5,80.5,87c0-1,0.3-2.3-0.6-2.9
		c-1.3-0.8-2.1,0.6-3,1.3c-2.6,1.9-5.2,3.1-4.6,7.8c0.5,4-2.1,8.3-3.3,12.5c-0.5,1.8-1.4,2.1-3,1.2c-4.7-2.5-10.3-3.1-13.6-8.1
		c-1.8-2.7-4.9-2.4-6.7-0.2c-3.7,4.5-9.2,5.4-13.7,8.2c-1.9,1.2-2.6,0.2-2.8-1.4c-0.9-5.2-4.1-10-3.4-15.6c0.2-1.2-6.4-6.6-7.5-6.4
		c-1.8,0.4-1,2-1.1,3C17,96,17.5,105.5,19.8,115c-7.4-4.7-13.4-11.3-17.5-19c-0.4-0.8-0.8-1.6-1.2-2.4s0.3-1.4,0-2.2
		c0.8-2.4,1.8-4.1,4-5.4c3.8-3.2,8.6-5.2,11.2-9.9c2-2.3,3.8-6.5,5.2-8.9c-0.3-1.2-1.4-1.2-2.2-2.3c-3.7-3.4-6.9-7.3-9.4-11.6
		C6.9,50,5,46.6,9,42.5c0.4-0.1,0.5-0.4,0.6-0.6c0.1-0.2,0.1-0.5-0.1-0.9C9.1,40.5,29.6,7.8,33.1,5.4c0.1-0.2,0.4-0.3,0.6-0.3
		l0.8-0.8C38.6,2.1,50,4.8,51.9,6.6c1.5,1.3,2.1,0.1,3.8,0.5c2.8,0.6,5.4-3.6,8.3-0.3l1.3-0.4c0.3,0.2-0.4,1.6,0,3.8
		c0.4,1.8,2.9,3.7,3.6,4.5c0.7,0.7,2.7-0.2,3.2,0.6l0,0l0,0l3.1,2c3,2,6.4,3.8,6.9,8c4.8,2.8,7.2,7.7,10.7,11.6
		c2.2,2.5,1.4,6.3-0.4,9.4c-2,3.5-4,6.9-6.1,10.3c-1.6,2.6-2.9,5.5-6,6.8c1.1,1.4-0.2,2.3-0.8,3.3c-1,3,0,5.9,1.4,8.5
		c1.9,1.6,2.4,4.4,4.5,5.5C90.4,83.5,93.9,86,94.8,90.3z"/>
	<path class="st3" d="M92.4,46.6c-2,3.5-4,6.9-6.1,10.3c-1.2,2.7-6.5,9.8-6.8,10.1c-1.9,2.2-4.7,2.5-7.4,3.9
		c-0.2,0.1-0.3,0.1-0.5,0.2l0,0c-1.5,0.7-2.9,1.5-4.2,2.4c-0.1,0.1-0.3,0.2-0.4,0.3L66.7,74c-2.9,1.7-5.7,3.6-8.4,5.6
		c-0.1,0-0.1,0.1-0.2,0.1l-0.8,0.6c-0.2,0.5-0.5,0.9-0.8,1.3c-4.8,7-6.2,8.5-9.9,5C46,86,45.2,85,44.2,83.9l0,0L43,82.6
		c-2.3-1.7-4.4-3.6-6.5-5.6h-0.1c-0.4-0.4-0.9-0.8-1.4-1.1c-0.9-0.5-2-0.9-3-1.1c-0.5-0.2-1.1-0.3-1.6-0.4h-0.1
		c-0.7-0.2-1.3-0.5-1.9-1c0-0.1-0.1-0.1-0.1-0.2l0,0c-1.2-0.7-7.7-5.6-6.3-5.5c0.4,0,1.3-0.9,2.2-1.4l0,0l0,0
		c-2.1-1.7-0.5-3.3,0.5-4.7c10.6-14.4,22.9-27.5,36.4-39.1c3-2.5,5-6.4,9.2-7.4c0.1,0,0.2,0,0.3-0.1c0.1,0,0.3-0.2,0.4-0.2
		c1,0.2,7.4,4.4,10.8,7.8c4.4,4.4,9.6,12.2,11,14.7C95,39.8,94.2,43.6,92.4,46.6z"/>
	<path d="M94.9,90.6c-3.4,8.8-9.2,16.6-16.7,22.3c0-0.1,0-0.2,0.1-0.3c2.8-8.3,2.6-16.8,2.3-25.3c0-1,0.3-2.3-0.6-2.9
		c-1.3-0.8-2.1,0.6-3,1.3c-2.6,1.9-5.2,3.1-4.6,7.8c0.5,4-2.1,8.3-3.3,12.5c-0.5,1.8-1.4,2.1-3,1.2c-4.7-2.5-10.3-3.1-13.6-8.1
		c-1.8-2.7-4.9-2.4-6.7-0.2c-3.7,4.5-9.2,5.4-13.7,8.2c-1.9,1.2-2.6,0.2-2.8-1.4c-0.9-5.2-4.1-10-3.4-15.6c0.2-1.2-6.4-6.6-7.5-6.4
		c-1.8,0.4-1,2-1.1,3c-0.2,9.6,0.3,19.1,2.6,28.6c-7.4-4.7-13.4-11.3-17.5-19c-0.4-0.8-2-4-2.3-4.8c1.1-3.5,2.3-4,4.6-5.9
		c3.8-3.2,9-4.8,11.6-9.4c1.1-1.2,1.8-3.2,4.1-2.3l0.1,0.1c0.1,0.1,0.1,0.1,0.2,0.2c0.4,0.6,0.6,1.3,0.6,2c0.7,7.1,2.6,8,8.4,4.3
		c0.5-0.2,1-0.2,1.5,0.1c0.5,0.3,1.1,0.6,1.6,0.8c0.1,0.1,0.2,0.1,0.3,0.1c0.3,0.2,0.7,0.3,1,0.4l0,0c0.2,0.1,0.5,0.2,0.7,0.3
		s0.6,0.2,0.8,0.3c4.5,0.8,7.2,4.9,11.3,6.5l0.5,0.2c0.1,0,0.2,0.1,0.3,0.1c3.3,1.4,4.4-1.7,6.3-3.1h0.1c0.3-0.1,0.5-0.2,0.8-0.3
		c3.8-1.4,7-4.1,11-5.2l0,0H66c0.1,0,0.2,0,0.3,0c0.6,0.1,1.1,0.2,1.7,0.3c1.8,0.3,2.2,3.9,4.4,2.5s4.4-3.3,4.7-6.3
		c0-0.7,0.2-1.4,0.7-1.9c0.1-0.1,0.1-0.1,0.2-0.2l0.1-0.1c1-0.4,2.1-0.2,2.8,0.5c1.9,1.6,3.5,3.5,5.6,4.6
		C91.6,82.6,94,86.3,94.9,90.6z"/>
	<path class="st4" d="M71,14.8c-16.8,14.3-32.5,30.4-45.8,48c-0.6,0.8-2.3,2.2-1,3.5l0,0c-1.8,2.3-2.8,2.1-5.1-1
		c-3.7-3.4-6.8-7.2-9.3-11.5C8,51.9,6.5,49.1,6.7,47c0.1-1.8,0.8-3.2,2.1-4.6c0.6-0.8,0.6-0.6,0.8-1.1c-0.1-0.5,0.2-0.8,0.5-0.9h0.1
		h0.2c1.3,0.3,2.2,1.3,2.5,2.5C13,43,13,43,13,43.1c0.1,0.3,0.2,0.7,0.2,1c0.1,0.8,0.3,1.7,1.5,1.3c0.2-0.1,0.4-0.1,0.6-0.3
		c0.1-0.1,0.2-0.2,0.3-0.3c1.3-1.5,2.5-3,3.7-4.5l0.3-0.3l0.1-0.2c7.1-8.4,15-16,22.7-23.8c0.1-0.1,0.3-0.2,0.4-0.3s0.5-0.4,0.7-0.6
		l0,0c1.9-1.7,3.6-3.4,5.2-5.3c0.1-0.1,0.1-0.2,0.2-0.3c0.3-0.4,0.4-0.9,0.4-1.3l0,0C49.4,8,49.2,7.8,49,7.6l0,0
		c-0.5-0.2-0.9-0.4-1.4-0.5C47.3,7,47,6.8,46.8,6.5c-0.6-0.6-2-2.5-2-2.5c0.1-0.1,0.7-0.5,1.8-0.8s3-0.4,4.6-0.3
		c2.2,0.4,3.4,0.9,5,1.4c2.1,0.8,2.1,0.8,3.1,1.3c0.1,0,0.1,0,0.2,0.1l0,0c2.4,1.3,4.9,2.6,6.8,4.7c0.2,0.2,0.3,0.4,0.4,0.5l0,0
		C67.9,12.6,70.9,14.7,71,14.8z"/>
	<path class="st5" d="M43.7,2.9L43.7,2.9L43.7,2.9c-0.7,2.3-2.6,3.3-4.5,3.9c-9,2.8-14.6,9.5-20.1,16.6c-4,5.1-7,10.9-9,17
		c0,0.1-0.1,0.2-0.1,0.3c-0.1,0.2-0.3,0.4-0.5,0.6c-0.5-0.5-1-1-1.4-1.5c-2.2-2.5-1.2-7.8-0.3-9.9s3.9-6.8,7.1-10.9
		c3.3-4.4,6.2-6.9,9.2-9.5C26.6,7.3,40.3-1.2,43.7,2.9z"/>
	<path class="st6" d="M66.7,10.9c-0.1,0.2-0.3,0.5-0.5,0.7L59,6.2c0.1-0.2,0.1-0.4,0.2-0.6c1-2.5,4.1-2.5,6-1.4
		C67.9,5.7,67.7,9.4,66.7,10.9z"/>
	<path class="st7" d="M49.3,117.6c-1.1-0.1-1.9-0.6-1.9-1.9c-0.1-0.9,0.5-1.7,1.4-1.9c0.2,0,0.3,0,0.5,0c0.8-0.1,1.6,0.6,1.6,1.4
		v0.1C51.1,116.4,50.4,117.4,49.3,117.6L49.3,117.6z"/>
	<path class="st8" d="M61.1,70.3c-6.1,5.4-12.4,4.2-14.9-3.1C50.6,72.4,55.2,71.9,61.1,70.3z"/>
	<path class="st9" d="M66.6,62.8c-0.2,1.2-0.8,2-2.1,1.9c-1.1,0-2-0.9-2-2c-0.1-1.1,0.7-2.1,1.8-2.1c0.2,0,0.3,0,0.5,0
		C66,60.7,66.7,61.7,66.6,62.8z"/>
	<path class="st10" d="M46.5,57.2c1.1,0,2.1,0.9,2.1,2.1c0,1-0.7,1.8-1.7,2c-1,0.3-2.1-0.4-2.3-1.4c-0.1-0.2-0.1-0.4,0-0.7
		C44.5,58,45.3,57.4,46.5,57.2z"/>
	<path class="st11" d="M21.2,57.2c-1.2-0.3-2.3-1.1-2.9-2.3C17.1,53.3,18,52,19,50.7c6.5-8.6,13.6-16.7,21.2-24.4
		c4.4-4.4,9-8.7,13.7-12.9c1.3-1.2,2.8-2.9,5-1.6c1.9,1.1,3.7,2.1,0.9,4.5C46.5,28.3,34,40.9,23.4,55.2C22.7,55.9,22,56.6,21.2,57.2
		z"/>
	<path class="st12" d="M43.7,2.9l3.8,3.5c1,1.2,3.2,1.6,2.6,3.6c-2.2,2-4.7,4.5-6.7,6.4c-0.9-0.7,0-2.3-1.3-2.6
		c-6.2-1.7-14.6,3.1-16.4,9.3c-1.2,4.1-4.6,7-5.6,11.4c-0.5,2.3-1,4.2,0.1,6.3l-3.8,4.9c-2,0.1-3.2-0.8-4.2-2.4l-2.7-2
		C9.3,31.6,16.6,25,21.7,18.1C27.2,10.6,35.4,6.5,43.7,2.9z"/>
	<path class="st13" d="M20.3,40.8c-2.9-1.6-3-2.5-1.7-6.3c1.6-4.7,5.6-8,6.1-13.1c0.3-3.2,6.3-7.4,9.8-7.3c2.1,0.1,3.8-1.9,6.2-1.3
		c0.8,0.2,2.2-1.6,3.5-0.3c1.6,1.6-1.5,2.5-0.8,4c0,0,0,0-10.7,11C19.9,40.4,20.3,40.8,20.3,40.8z"/>
	<path class="st14" d="M12.3,43.3c1.2,0.7,2.7,1.5,4.2,2.4c-0.8,1-1.4,3-3,2.1C11.6,46.8,11.2,45.3,12.3,43.3z"/>
	<path class="st15" d="M50.1,10c-0.9-1.3-1.2-1.8-2.6-3.6c1.5-0.6,2.8-0.7,3.6,0.7C51.9,8.6,51.1,9.2,50.1,10z"/>
</g>
</svg>
